<?xml version="1.0" standalone="no"?>
<!DOCTYPE svg PUBLIC "-//W3C//DTD SVG 20010904//EN"
 "http://www.w3.org/TR/2001/REC-SVG-20010904/DTD/svg10.dtd">
<svg version="1.0" xmlns="http://www.w3.org/2000/svg"
 width="966.000000pt" height="966.000000pt" viewBox="0 0 966.000000 966.000000"
 preserveAspectRatio="xMidYMid meet">
<metadata>
Created by potrace 1.11, written by Peter Selinger 2001-2013
</metadata>
<g transform="translate(0.000000,966.000000) scale(0.100000,-0.100000)"
fill="#000000" stroke="none">
<path d="M5335 7249 c-38 -17 -130 -53 -203 -80 -223 -85 -579 -263 -842 -422
-36 -22 -69 -44 -75 -51 -5 -6 -77 -56 -160 -111 -82 -55 -184 -124 -225 -155
-41 -31 -129 -94 -195 -140 -66 -46 -151 -110 -190 -142 -38 -33 -95 -76 -125
-96 -30 -20 -78 -54 -106 -77 -288 -230 -449 -308 -729 -355 -38 -6 -82 -16
-97 -22 -34 -13 -46 -45 -25 -66 14 -13 50 -13 339 -1 419 18 1354 18 1620 0
216 -15 228 -13 228 38 0 47 80 372 131 535 40 124 76 209 166 390 64 127 139
267 168 311 57 86 195 246 334 388 47 48 79 87 71 87 -8 -1 -46 -14 -85 -31z"/>
<path d="M1835 6058 c-236 -331 -431 -605 -433 -609 -2 -5 5 -9 15 -9 12 0 80
88 213 277 107 152 209 297 227 322 l32 45 46 -98 c25 -54 42 -103 38 -109 -4
-7 -74 -106 -155 -220 -81 -114 -148 -210 -148 -212 0 -3 17 -5 38 -5 l37 0
285 402 c157 221 300 422 317 448 l33 46 -51 154 c-29 85 -54 158 -58 162 -3
3 -199 -264 -436 -594z"/>
<path d="M9559 6636 c-3 -3 -36 -10 -74 -16 -104 -16 -421 -88 -515 -116 -156
-47 -253 -77 -310 -98 -36 -13 -130 -48 -210 -76 -80 -29 -197 -75 -260 -103
-196 -84 -609 -297 -704 -362 -50 -33 -118 -76 -151 -95 -33 -18 -116 -72
-185 -120 -142 -98 -227 -153 -285 -185 -22 -12 -49 -26 -60 -33 -40 -23 -202
-91 -275 -116 -104 -34 -178 -46 -286 -46 -84 0 -94 -2 -108 -22 -21 -30 -11
-43 79 -98 91 -55 115 -89 115 -165 0 -77 -63 -164 -159 -221 -17 -10 -34 -27
-37 -37 -11 -34 12 -44 119 -51 56 -4 129 -11 162 -16 33 -5 105 -14 160 -20
55 -6 123 -14 150 -20 28 -5 84 -14 125 -20 173 -26 210 -32 305 -52 55 -11
127 -24 160 -29 33 -4 114 -22 180 -39 254 -65 308 -82 390 -117 39 -17 80
-34 91 -37 12 -4 34 -18 48 -31 54 -50 69 -29 105 153 42 208 145 489 243 662
93 163 206 338 276 425 147 184 467 549 553 631 30 28 90 91 134 140 44 48 96
104 115 123 68 71 162 176 171 194 8 15 5 17 -24 17 -19 0 -36 -2 -38 -4z"/>
<path d="M2237 5482 c-34 -38 -11 -94 38 -94 50 0 74 62 37 95 -24 22 -55 21
-75 -1z"/>
<path d="M2895 5479 c-319 -9 -465 -19 -465 -30 0 -6 63 -6 158 -2 261 13
1449 10 1597 -4 72 -7 222 -17 335 -23 306 -17 547 -38 620 -56 14 -3 68 -12
120 -19 208 -30 250 -38 380 -71 243 -62 382 -118 448 -181 34 -33 42 -47 42
-76 0 -23 -7 -44 -19 -56 -26 -26 -138 -101 -151 -101 -6 0 -30 -10 -53 -21
-23 -12 -64 -28 -92 -35 -27 -7 -77 -20 -110 -29 -33 -9 -87 -22 -120 -30 -58
-13 -54 -13 105 -11 188 2 214 8 365 82 161 78 211 144 171 222 -45 88 -279
195 -548 251 -24 5 -95 21 -158 34 -63 14 -142 28 -175 32 -33 3 -80 10 -105
15 -52 11 -205 28 -365 40 -60 5 -141 14 -180 20 -38 6 -160 15 -270 20 -110
5 -274 14 -365 19 -230 13 -878 19 -1165 10z"/>
<path d="M1913 5425 c-191 -18 -322 -36 -329 -46 -7 -11 -27 -13 256 16 135
13 253 25 263 25 9 0 17 5 17 10 0 12 -23 11 -207 -5z"/>
<path d="M1183 5403 l-213 -3 -20 -40 c-11 -21 -20 -41 -20 -44 0 -3 19 1 41
9 48 17 142 20 169 5 34 -18 42 -78 34 -278 -7 -193 -10 -209 -50 -252 l-23
-25 122 0 c67 0 128 4 135 8 19 12 14 27 -8 27 -12 0 -32 11 -45 25 -25 24
-25 24 -25 234 0 225 6 257 47 267 27 7 119 0 144 -10 11 -5 23 5 42 30 14 21
24 41 21 46 -3 4 -35 7 -72 6 -37 -2 -163 -4 -279 -5z"/>
<path d="M3315 5403 c-132 -4 -151 -16 -103 -63 l29 -30 -3 -227 -3 -228 -28
-36 -27 -36 112 -6 c104 -6 114 -5 133 13 19 20 19 20 -2 20 -12 0 -35 11 -50
24 l-28 24 -3 231 c-3 221 -2 231 17 250 28 28 108 29 143 1 35 -27 52 -72 45
-123 -7 -52 -59 -102 -116 -112 l-38 -6 31 -57 c42 -76 104 -175 141 -224 l30
-39 83 -3 c72 -3 84 -1 92 14 8 16 5 20 -21 25 -38 9 -104 74 -180 180 l-58
80 44 22 c99 51 133 164 72 234 -64 72 -95 79 -312 72z"/>
<path d="M940 5284 c-30 -8 -80 -20 -110 -25 -30 -5 -80 -18 -110 -28 -30 -11
-71 -22 -91 -25 -90 -16 -323 -131 -369 -182 -55 -63 -52 -117 10 -174 48 -45
211 -126 304 -151 138 -38 261 -68 289 -71 l28 -3 -33 -47 c-18 -26 -35 -48
-38 -48 -3 1 -24 28 -47 62 -47 68 -39 69 -72 -15 l-11 -29 -86 79 -87 78 7
-90 6 -90 -55 107 c-42 83 -62 111 -86 124 -41 21 -44 27 86 -197 l107 -184
-7 115 c-4 63 -5 113 -2 110 33 -32 114 -146 109 -154 -3 -6 -138 -195 -299
-419 -162 -225 -303 -429 -315 -453 -16 -36 -20 -57 -15 -103 3 -33 11 -71 18
-85 8 -14 131 -229 274 -477 262 -456 281 -483 321 -461 14 8 171 219 192 259
11 19 -12 62 -198 377 -232 394 -250 428 -250 467 0 19 41 83 138 217 75 104
167 231 204 282 l67 93 20 -46 c11 -26 22 -47 24 -47 3 0 12 11 21 25 16 24
15 28 -8 74 -19 36 -22 51 -13 60 16 16 24 14 60 -13 61 -44 60 -45 52 23 -4
33 -4 61 -1 61 4 0 30 -13 59 -30 l52 -30 10 66 10 66 50 -41 50 -42 9 30 9
30 28 -20 28 -20 16 31 c17 34 19 34 64 19 30 -11 35 -9 67 22 32 31 36 32 67
21 20 -7 50 -9 82 -4 l50 8 -27 17 c-21 15 -30 16 -45 6 -15 -9 -26 -8 -51 5
-41 21 -49 20 -88 -9 l-34 -26 -39 21 c-22 11 -43 20 -45 20 -3 0 -13 -14 -21
-30 l-16 -31 -42 31 -42 31 -5 -25 -5 -25 -47 29 c-27 17 -50 30 -52 30 -2 0
-7 -31 -11 -70 -4 -38 -10 -70 -14 -70 -3 1 -25 11 -48 23 l-41 22 24 30 c20
25 26 28 34 15 7 -11 10 -6 10 20 0 29 12 59 37 89 2 3 19 -10 38 -29 l35 -33
16 39 16 39 34 -40 33 -40 31 30 31 30 39 -45 c38 -44 39 -44 54 -25 9 11 18
28 21 38 8 22 23 22 82 -4 37 -16 52 -18 66 -9 14 8 24 6 48 -11 28 -19 31
-20 54 -5 13 9 41 16 62 17 l38 0 -43 22 c-36 18 -46 19 -63 9 -17 -11 -25 -9
-55 15 -36 27 -44 25 -57 -11 -2 -6 -34 3 -71 19 -66 28 -69 28 -82 11 -7 -11
-15 -24 -18 -30 -2 -6 -10 -3 -19 9 -9 11 -22 29 -30 40 -15 20 -16 20 -46 -9
l-30 -29 -51 43 -50 42 -6 -31 c-4 -17 -10 -33 -13 -36 -4 -2 -32 16 -62 41
-52 43 -54 44 -61 22 -3 -13 -6 -35 -7 -50 -1 -16 -4 -28 -9 -28 -6 0 -69 96
-81 124 -4 10 8 8 184 -25 232 -43 369 -58 930 -99 349 -26 865 -40 1220 -34
533 8 1201 40 1450 69 317 36 307 36 -1460 19 -462 -4 -667 -2 -945 11 -391
18 -567 29 -590 38 -15 6 -139 20 -325 38 -120 11 -259 33 -375 59 -52 11
-126 27 -165 35 -129 26 -289 76 -367 116 -60 30 -118 94 -118 128 0 57 37 92
166 157 66 33 143 66 170 72 27 6 67 16 89 22 22 7 69 18 105 25 36 8 83 18
105 24 22 6 55 11 73 11 17 0 32 5 32 10 0 14 -75 11 -140 -6z m-187 -729 c4
-8 2 -17 -3 -20 -6 -4 -10 3 -10 14 0 25 6 27 13 6z m171 -47 c16 -22 29 -46
29 -52 0 -9 -522 -755 -584 -835 -11 -13 -19 -37 -19 -53 0 -28 40 -115 79
-173 12 -16 21 -33 21 -38 0 -4 -75 -6 -167 -5 l-167 3 -19 55 c-38 106 -43
96 300 577 168 235 307 430 310 433 3 3 11 -4 19 -14 13 -18 14 -17 14 17 0
35 24 87 39 87 4 0 14 -11 21 -25 7 -14 16 -25 19 -25 3 0 20 20 36 45 17 24
32 45 35 45 3 0 18 -19 34 -42z m6 -250 c0 -4 -6 -5 -14 -2 -8 3 -12 12 -9 21
5 12 7 12 14 1 5 -7 9 -16 9 -20z m-157 -1455 c20 -32 32 -63 29 -69 -19 -30
-178 -244 -182 -244 -5 1 -200 354 -200 364 0 3 72 6 159 6 l159 0 35 -57z"/>
<path d="M1423 5214 c-2 -7 6 -23 19 -37 13 -14 32 -52 42 -84 10 -32 38 -107
63 -168 25 -60 49 -120 54 -132 8 -22 10 -22 42 -7 27 13 41 33 77 111 40 85
45 92 54 71 5 -13 25 -55 43 -95 18 -39 33 -76 33 -81 0 -19 19 -23 40 -10 23
14 84 129 150 283 24 55 53 114 66 130 l22 31 -79 -1 c-43 0 -81 -3 -84 -7 -3
-3 5 -17 19 -31 14 -15 26 -32 26 -40 0 -47 -91 -267 -110 -267 -23 0 -110
221 -110 279 0 15 6 35 14 46 13 19 11 20 -60 19 -41 0 -77 -3 -81 -7 -3 -4 3
-17 15 -30 24 -26 61 -104 62 -130 0 -10 -11 -43 -25 -73 -14 -30 -25 -57 -25
-59 0 -3 -9 -19 -20 -37 l-19 -32 -26 59 c-38 84 -75 203 -75 237 0 16 7 39
15 51 l14 22 -76 0 c-47 0 -77 -4 -80 -11z"/>
<path d="M2203 5213 c-3 -7 2 -20 11 -28 13 -14 16 -43 16 -176 0 -162 -9
-210 -42 -221 -7 -3 28 -7 77 -10 104 -7 135 5 83 31 l-33 16 0 181 c0 156 2
185 17 200 16 18 14 19 -54 19 -46 0 -72 -4 -75 -12z"/>
<path d="M2780 5211 c-5 -10 0 -21 14 -32 19 -16 21 -28 24 -160 l4 -143 -40
50 c-22 27 -74 85 -116 129 -42 44 -86 99 -97 122 -20 42 -22 43 -69 43 -58 0
-69 -11 -40 -40 21 -21 22 -30 18 -190 -3 -145 -5 -171 -21 -188 -18 -19 -17
-20 50 -24 74 -6 101 4 61 23 -40 18 -48 49 -48 187 1 115 2 125 16 107 18
-24 160 -181 190 -210 11 -11 33 -41 48 -66 26 -45 28 -47 56 -36 l28 11 4
186 c2 155 6 190 20 212 l17 26 -55 4 c-41 2 -58 -1 -64 -11z"/>
<path d="M3863 5213 c-3 -6 5 -21 17 -33 20 -20 21 -29 18 -180 -3 -144 -5
-161 -25 -188 l-22 -29 82 -6 c64 -4 85 -3 97 9 12 12 12 14 -3 14 -9 0 -26 9
-37 20 -18 18 -20 33 -20 178 0 131 3 164 18 192 l17 35 -69 0 c-43 0 -70 -4
-73 -12z"/>
<path d="M4642 5212 c-2 -7 4 -19 14 -27 17 -12 19 -31 22 -175 3 -146 2 -164
-16 -194 l-20 -34 76 -4 c52 -3 81 -1 90 7 11 10 9 14 -11 19 -41 10 -49 49
-45 215 3 133 5 152 24 178 l21 28 -75 0 c-52 0 -76 -4 -80 -13z"/>
<path d="M5204 5211 c-114 -69 -75 -182 80 -234 65 -22 86 -43 86 -83 0 -24
-8 -39 -27 -54 -24 -19 -37 -21 -93 -18 -36 3 -80 13 -99 22 l-34 18 7 -29
c10 -39 28 -50 96 -58 68 -8 111 -1 161 27 44 25 59 53 59 114 0 39 -5 51 -32
78 -19 19 -57 41 -88 51 -78 25 -110 50 -110 85 0 56 72 76 160 45 23 -8 44
-15 46 -15 2 0 -2 13 -7 29 -12 34 -31 41 -114 41 -42 0 -70 -6 -91 -19z"/>
<path d="M1090 5194 c-53 -38 -72 -44 -195 -54 -115 -9 -177 -27 -202 -58 -32
-40 -41 -59 -47 -99 l-6 -42 56 59 c61 64 78 72 199 90 98 15 149 38 200 90
45 46 44 49 -5 14z"/>
<path d="M4112 5207 c-8 -10 -6 -16 9 -25 18 -11 19 -24 19 -172 0 -115 -4
-170 -14 -194 l-14 -34 61 -4 c34 -3 66 -3 70 -1 5 3 -5 17 -23 32 l-31 26 3
130 3 131 108 -121 c60 -66 122 -139 139 -162 27 -36 34 -40 53 -31 20 9 23
19 29 115 3 59 6 142 6 185 0 51 5 89 15 108 l16 30 -54 0 c-67 0 -86 -15 -51
-42 23 -19 24 -23 24 -156 l-1 -137 -27 35 c-15 19 -45 53 -68 75 -74 73 -164
185 -164 205 0 17 -7 20 -49 20 -27 0 -53 -6 -59 -13z"/>
<path d="M4890 5173 c-23 -27 -50 -59 -59 -73 -9 -14 -26 -36 -38 -50 -13 -14
-23 -28 -23 -32 0 -7 62 -95 135 -190 36 -48 37 -48 95 -48 42 0 59 4 64 15 3
10 -1 15 -12 15 -29 0 -85 54 -151 145 l-62 85 51 62 c28 33 67 74 87 90 l36
28 -41 0 c-36 0 -45 -6 -82 -47z"/>
<path d="M760 5022 c-46 -18 -90 -68 -90 -104 0 -10 11 -30 25 -43 20 -21 34
-25 82 -25 143 0 225 62 183 139 -10 20 -67 47 -77 37 -3 -3 1 -6 9 -6 8 0 27
-9 42 -21 32 -25 35 -67 6 -92 -32 -27 -112 -48 -170 -45 -44 2 -56 8 -73 30
-17 22 -18 32 -9 50 l11 23 0 -26 c2 -46 24 -64 81 -64 44 0 55 4 76 28 32 37
30 62 -5 97 -27 28 -28 29 -7 33 14 3 12 5 -9 5 -16 1 -50 -7 -75 -16z m80
-47 c0 -8 -4 -15 -9 -15 -5 0 -11 7 -15 15 -3 9 0 15 9 15 8 0 15 -7 15 -15z"/>
<path d="M930 4855 c-14 -7 -54 -19 -89 -26 -54 -12 -68 -11 -107 3 -51 18
-57 15 -14 -7 42 -21 132 -19 185 5 24 11 47 24 50 30 8 13 6 12 -25 -5z"/>
<path d="M4265 4674 c-292 -10 -942 -47 -1035 -59 -94 -12 -53 -13 380 -7 267
4 812 7 1213 7 l727 -1 0 22 c0 20 -6 21 -112 28 -134 7 -1015 15 -1173 10z"/>
<path d="M5677 4662 c-22 -24 -21 -55 1 -75 37 -33 92 -13 92 33 0 54 -58 80
-93 42z"/>
<path d="M5870 4608 c0 -25 1 -25 113 -32 61 -3 162 -11 222 -16 61 -5 162
-14 225 -19 135 -11 284 -28 320 -37 23 -5 115 -19 295 -44 39 -5 90 -14 115
-19 25 -6 68 -13 95 -16 93 -12 350 -82 520 -142 129 -45 269 -141 295 -202
19 -46 -3 -108 -56 -156 -41 -38 -277 -165 -307 -165 -7 0 -46 -11 -87 -24
-41 -13 -97 -29 -125 -35 -27 -6 -72 -18 -100 -26 -49 -13 -176 -42 -380 -86
-55 -12 -129 -25 -165 -30 -36 -4 -105 -15 -155 -23 -88 -15 -206 -28 -410
-46 -55 -5 -140 -13 -190 -19 -285 -34 -441 -44 -1035 -65 -548 -19 -853 -19
-1395 0 -581 21 -768 33 -990 64 -38 5 -106 12 -150 15 -44 3 -107 10 -140 16
-33 5 -105 14 -160 18 -154 14 -414 63 -540 101 -16 5 -66 18 -110 29 -160 39
-325 93 -390 128 -89 48 -162 104 -178 138 -51 106 9 187 208 278 66 30 158
66 205 81 150 45 253 74 315 86 33 6 83 18 110 25 45 13 120 28 185 39 14 2
-33 3 -105 2 -83 -2 -148 -8 -180 -18 -55 -17 -197 -54 -260 -68 -22 -5 -60
-16 -85 -25 -25 -9 -70 -23 -100 -31 -30 -8 -113 -44 -185 -79 -140 -69 -237
-144 -261 -202 -31 -72 -9 -146 63 -215 96 -92 494 -247 728 -284 50 -7 110
-18 135 -24 110 -25 260 -53 320 -60 36 -5 94 -14 130 -20 36 -6 117 -17 180
-25 63 -8 142 -19 175 -24 73 -13 272 -30 460 -41 77 -5 232 -14 345 -22 277
-17 1628 -17 1905 0 110 7 277 17 370 22 94 5 181 12 195 15 14 3 84 10 155
15 72 5 157 14 190 19 33 6 103 15 155 21 52 6 124 15 160 21 36 5 99 13 140
18 41 5 122 17 180 29 164 31 279 51 350 61 156 22 540 137 740 222 163 69
280 181 280 269 0 87 -95 185 -250 259 -58 27 -130 56 -160 64 -30 9 -94 29
-141 46 -48 16 -120 37 -160 46 -41 9 -112 24 -159 35 -77 17 -154 32 -295 60
-27 5 -86 14 -130 20 -123 14 -233 29 -310 40 -157 23 -402 45 -622 57 l-113
6 0 -25z"/>
<path d="M2885 4361 c-108 -26 -173 -105 -162 -197 8 -78 58 -125 178 -169
149 -54 175 -66 196 -90 33 -38 38 -69 16 -112 -41 -85 -180 -103 -346 -45
-58 20 -87 26 -83 17 2 -7 10 -31 17 -53 6 -23 19 -44 27 -47 8 -3 57 -11 108
-17 159 -20 292 9 355 79 49 53 59 76 59 131 0 101 -55 159 -201 210 -143 50
-148 53 -179 82 -59 55 -28 130 61 149 60 13 161 0 228 -30 24 -10 45 -19 46
-19 2 0 -4 22 -12 49 -16 48 -17 49 -71 60 -61 12 -190 13 -237 2z"/>
<path d="M4376 4164 c-11 -7 -34 -16 -51 -20 -26 -5 -31 -10 -33 -37 -2 -17
-24 -70 -50 -117 -26 -47 -63 -119 -82 -160 -41 -87 -66 -127 -97 -155 l-22
-20 109 0 c59 0 111 3 115 6 3 4 -11 15 -32 25 -49 24 -52 47 -17 124 l27 60
102 0 102 0 27 -59 c32 -72 33 -105 4 -134 l-23 -22 100 0 c112 0 145 10 99
30 -16 7 -37 27 -46 46 -62 129 -130 263 -158 314 -18 33 -38 76 -44 97 -10
33 -13 35 -30 22z m29 -204 l25 -50 -85 0 -85 0 41 81 41 81 19 -31 c10 -17
30 -53 44 -81z"/>
<path d="M3373 4138 c-15 -16 -15 -18 0 -18 33 0 38 -36 35 -226 l-3 -186 -30
-26 -30 -27 111 -3 c90 -2 114 0 124 13 10 12 9 15 -7 15 -10 0 -29 7 -41 16
-20 14 -22 23 -22 115 l0 99 145 0 145 0 0 -79 c0 -85 -10 -124 -41 -157 l-19
-20 85 -2 c47 0 94 -3 104 -7 14 -4 23 0 31 15 9 17 8 20 -10 20 -11 0 -29 9
-40 20 -19 19 -20 33 -20 204 0 175 1 185 23 217 l23 34 -84 -2 c-93 -1 -115
-14 -79 -43 17 -14 22 -31 25 -89 l4 -71 -146 0 -146 0 0 73 c0 68 13 107 41
127 4 3 -31 5 -78 5 -68 0 -88 -3 -100 -17z"/>
<path d="M4771 4141 c-5 -8 1 -22 16 -37 22 -22 23 -28 23 -194 0 -173 -4
-194 -41 -235 -18 -20 -17 -20 85 -22 82 -2 106 0 116 12 10 12 10 15 -2 15
-9 0 -27 9 -42 21 l-26 20 0 189 c0 138 3 190 13 197 38 30 114 18 147 -24 47
-60 13 -141 -70 -163 -26 -7 -40 -16 -37 -24 8 -20 128 -199 150 -223 18 -20
31 -23 93 -23 49 0 75 4 83 14 10 12 7 15 -16 20 -48 11 -81 39 -148 126 l-63
83 39 20 c80 39 108 112 68 172 -43 63 -85 75 -243 73 -103 -2 -140 -6 -145
-17z"/>
<path d="M5370 4141 c-5 -10 0 -21 16 -34 24 -18 24 -20 24 -207 0 -184 -1
-189 -24 -217 l-24 -28 103 -3 c81 -2 105 1 115 13 10 12 9 15 -8 15 -11 0
-30 9 -43 19 -22 18 -24 26 -27 160 -5 167 1 218 32 263 l22 33 -89 0 c-67 0
-91 -4 -97 -14z"/>
<path d="M5674 4095 c-29 -33 -76 -87 -104 -119 l-50 -59 33 -36 c18 -20 55
-65 82 -101 94 -123 96 -125 172 -126 66 -1 99 9 87 27 -3 5 -13 9 -22 9 -30
0 -93 53 -178 152 l-85 98 70 78 c83 90 88 95 126 115 l29 15 -53 3 -54 4 -53
-60z"/>
<path d="M6065 4141 c-69 -31 -98 -105 -65 -166 13 -24 99 -85 120 -85 25 0
107 -34 128 -53 22 -20 28 -59 16 -92 -18 -47 -142 -60 -241 -25 -31 11 -58
18 -59 17 -2 -2 2 -19 8 -39 13 -42 32 -48 169 -48 71 0 93 4 135 25 57 29 84
69 84 127 0 77 -38 111 -178 159 -75 26 -112 53 -112 80 0 75 96 98 221 54 21
-8 39 -13 39 -11 0 23 -26 65 -43 70 -50 13 -182 6 -222 -13z"/>
<path d="M8007 3704 c-101 -51 -379 -158 -482 -184 -38 -10 -114 -30 -169 -44
-54 -14 -107 -26 -118 -26 -11 0 -50 -7 -87 -15 -94 -20 -177 -36 -241 -45
-178 -26 -194 -30 -213 -49 -43 -43 4 -89 303 -288 387 -259 632 -375 1050
-497 215 -63 259 -76 325 -92 191 -46 474 -76 820 -89 l180 -7 -150 99 c-83
55 -180 124 -215 154 -36 30 -95 79 -133 108 -167 135 -472 531 -592 772 -52
103 -114 208 -136 230 -27 27 -43 24 -142 -27z"/>
</g>
</svg>
